<?xml version="1.0" encoding="UTF-8" standalone="no"?>
<!DOCTYPE svg PUBLIC "-//W3C//DTD SVG 1.1//EN" "http://www.w3.org/Graphics/SVG/1.1/DTD/svg11.dtd">
<svg width="100%" height="100%" viewBox="0 0 388 298" version="1.1" xmlns="http://www.w3.org/2000/svg" xmlns:xlink="http://www.w3.org/1999/xlink" xml:space="preserve" xmlns:serif="http://www.serif.com/" style="fill-rule:evenodd;clip-rule:evenodd;stroke-linecap:round;stroke-linejoin:round;stroke-miterlimit:1.5;">
    <g transform="matrix(1,0,0,1,-187.152,-148.355)">
        <g>
            <g transform="matrix(0.732132,0,0,0.696927,55.4822,44.9612)">
                <circle cx="216.082" cy="160.436" r="12.079"/>
            </g>
            <g transform="matrix(1,0,0,1,-6.1004,3.85676)">
                <text x="215.45px" y="184.299px" style="font-family:'ArialMT', 'Arial', sans-serif;font-size:18px;">1</text>
            </g>
        </g>
        <g transform="matrix(1,0,0,1,88.6309,88.6309)">
            <g transform="matrix(0.732132,0,0,0.696927,55.4822,44.9612)">
                <circle cx="216.082" cy="160.436" r="12.079"/>
            </g>
            <g transform="matrix(1,0,0,1,-6.1004,3.85676)">
                <text x="215.45px" y="184.299px" style="font-family:'ArialMT', 'Arial', sans-serif;font-size:18px;">2</text>
            </g>
        </g>
        <g transform="matrix(1,0,0,1,-17.6869,205.637)">
            <g transform="matrix(0.732132,0,0,0.696927,55.4822,44.9612)">
                <circle cx="216.082" cy="160.436" r="12.079"/>
            </g>
            <g transform="matrix(1,0,0,1,-6.1004,3.85676)">
                <text x="215.45px" y="184.299px" style="font-family:'ArialMT', 'Arial', sans-serif;font-size:18px;">6</text>
            </g>
        </g>
        <g transform="matrix(1,0,0,1,352.496,77.9128)">
            <g transform="matrix(0.732132,0,0,0.696927,55.4822,44.9612)">
                <circle cx="216.082" cy="160.436" r="12.079"/>
            </g>
            <g transform="matrix(1,0,0,1,-6.1004,3.85676)">
                <text x="215.45px" y="184.299px" style="font-family:'ArialMT', 'Arial', sans-serif;font-size:18px;">4</text>
            </g>
        </g>
        <g transform="matrix(1,0,0,1,231.937,257.515)">
            <g transform="matrix(0.732132,0,0,0.696927,55.4822,44.9612)">
                <circle cx="216.082" cy="160.436" r="12.079"/>
            </g>
            <g transform="matrix(1,0,0,1,-6.1004,3.85676)">
                <text x="215.45px" y="184.299px" style="font-family:'ArialMT', 'Arial', sans-serif;font-size:18px;">5</text>
            </g>
        </g>
        <g transform="matrix(1,0,0,1,223.093,16.8364)">
            <g transform="matrix(0.732132,0,0,0.696927,55.4822,44.9612)">
                <circle cx="216.082" cy="160.436" r="12.079"/>
            </g>
            <g transform="matrix(1,0,0,1,-6.1004,3.85676)">
                <text x="215.45px" y="184.299px" style="font-family:'ArialMT', 'Arial', sans-serif;font-size:18px;">3</text>
            </g>
        </g>
        <path d="M213.683,156.773L302.314,245.404L435.261,174.61" style="fill:none;stroke:black;stroke-width:1px;"/>
        <path d="M445.619,414.288L566.719,236.986" style="fill:none;stroke:black;stroke-width:1px;"/>
        <path d="M195.996,362.411L302.314,245.404" style="fill:none;stroke:black;stroke-width:1px;"/>
    </g>
</svg>
