<?xml version="1.0" encoding="UTF-8" standalone="no"?>
<!DOCTYPE svg PUBLIC "-//W3C//DTD SVG 1.1//EN" "http://www.w3.org/Graphics/SVG/1.1/DTD/svg11.dtd">
<svg width="100%" height="100%" viewBox="0 0 555 455" version="1.1" xmlns="http://www.w3.org/2000/svg" xmlns:xlink="http://www.w3.org/1999/xlink" xml:space="preserve" xmlns:serif="http://www.serif.com/" style="fill-rule:evenodd;clip-rule:evenodd;stroke-linejoin:round;stroke-miterlimit:2;">
    <g id="Layer-1" serif:id="Layer 1" transform="matrix(1,0,0,1,-1831.37,-248.898)">
        <g id="g3046" transform="matrix(0,1,-1,0,2535.16,-1582.04)">
            <g id="g3388" transform="matrix(1,0,0,1,647.899,-29.6954)">
                <path id="path3162" d="M1429.12,297.219L1421.78,467.438L1251.53,392.906L1249.53,397.5L1423.09,473.469L1426.44,474.938L1426.59,471.313L1434.12,297.438L1429.12,297.219Z" style="fill:rgb(4,199,83);"/>
                <path id="path3394" d="M1418.41,322.948L1431.87,290.722L1442.5,323.99C1435.61,318.451 1425.88,318.06 1418.41,322.948Z" style="fill:rgb(4,199,83);"/>
                <path id="path3396" d="M1269.64,416.779L1244.45,392.593L1279.31,394.696C1271.66,399.115 1267.78,408.046 1269.64,416.779Z" style="fill:rgb(4,199,83);"/>
            </g>
            <g id="g3398" transform="matrix(1,0,0,1,647.899,-29.6954)">
                <path id="path2175" d="M1471.69,192.25L1422.31,467.188L1315.47,402.344L1312.88,406.625L1422.81,473.375L1425.94,475.25L1426.59,471.656L1476.62,193.156L1471.69,192.25Z" style="fill:rgb(68,138,255);"/>
                <path id="path3404" d="M1457.62,216.304L1475.28,186.173L1481.35,220.565C1475.27,214.153 1465.68,212.462 1457.62,216.304Z" style="fill:rgb(68,138,255);"/>
                <path id="path3406" d="M1330.26,428.405L1308.5,401.093L1342.77,407.799C1334.6,411.164 1329.58,419.503 1330.26,428.405Z" style="fill:rgb(68,138,255);"/>
            </g>
            <g id="g3438" transform="matrix(1,0,0,1,647.899,-29.6954)">
                <path id="path2183" d="M1424.81,466.469L1422.28,469.656L1299.09,623.469L1302.97,626.594L1424.09,475.344C1424.97,476.473 1426.05,477.818 1427.44,479.5C1430.46,483.159 1434.61,488.058 1439.53,493.781C1449.37,505.228 1462.24,519.972 1475.03,534.531C1500.61,563.651 1525.88,592.063 1525.88,592.063L1528.53,588.031C1528.53,588.031 1504.35,560.324 1478.78,531.219C1466,516.666 1453.15,501.951 1443.34,490.531C1438.44,484.821 1434.29,479.924 1431.31,476.313C1429.82,474.507 1428.63,473.035 1427.78,471.938C1426.93,470.84 1426.33,469.817 1426.5,470.188L1424.81,466.469Z" style="fill:rgb(252,21,67);"/>
                <path id="path3444" d="M1519.42,562.822L1532.19,595.329L1501.41,578.837C1510.2,578.024 1517.46,571.533 1519.42,562.822Z" style="fill:rgb(252,21,67);"/>
                <path id="path3446" d="M1326.83,612.191L1296.93,630.242L1308.01,597.123C1310.29,605.658 1317.91,611.72 1326.83,612.191Z" style="fill:rgb(252,21,67);"/>
            </g>
            <g id="g3448" transform="matrix(1,0,0,1,647.899,-29.6954)">
                <path id="path2185" d="M1621.41,348.813L1422.84,469.063L1425.44,473.344L1624,353.094L1621.41,348.813Z" style="fill:rgb(4,199,83);"/>
                <path id="path3454" d="M1594.07,354.14L1628.35,347.469L1606.56,374.759C1607.35,365.959 1602.28,357.647 1594.07,354.14Z" style="fill:rgb(4,199,83);"/>
            </g>
            <g id="g3456" transform="matrix(1,0,0,1,647.899,-29.6954)">
                <path id="path3158" d="M1423.22,467.563L1421.94,469.969L1289.47,720.031L1293.88,722.375L1425.09,474.688L1532.75,543.625L1535.44,539.406L1425.5,469.031L1423.22,467.563Z" style="fill:rgb(68,138,255);"/>
                <path id="path3462" d="M1314.61,703.754L1288.61,727.076L1293.31,692.469C1297.14,700.428 1305.76,704.959 1314.61,703.754Z" style="fill:rgb(68,138,255);"/>
                <path id="path3464" d="M1518.59,517.219L1539.7,545.04L1505.59,537.522C1513.84,534.352 1519.06,526.135 1518.59,517.219Z" style="fill:rgb(68,138,255);"/>
            </g>
            <g id="g3466" transform="matrix(1,0,0,1,647.899,-29.6954)">
                <path id="path3160" d="M1612.56,451.906L1423.91,468.719L1420.56,469L1421.81,472.125L1504.06,677.719L1508.69,675.875L1427.72,473.375L1613,456.906L1612.56,451.906Z" style="fill:rgb(68,138,255);"/>
                <path id="path3472" d="M1507.89,648.026L1508.87,682.936L1485.51,656.978C1494.06,659.198 1503.09,655.554 1507.89,648.026Z" style="fill:rgb(68,138,255);"/>
                <path id="path3474" d="M1585.65,444.675L1619.36,453.774L1587.78,468.687C1592.37,461.134 1591.48,451.439 1585.65,444.675Z" style="fill:rgb(68,138,255);"/>
            </g>
            <g id="g3476" transform="matrix(1,0,0,1,647.899,-29.6954)">
                <path id="path3164" d="M1426.91,465.969L1422.59,469.25L1226,619.313L1229.03,623.313L1421.34,476.5L1409.81,706.969L1414.81,707.219L1426.62,471.344L1426.91,465.969Z" style="fill:rgb(4,199,83);"/>
                <path id="path3482" d="M1255.64,615.063L1222.27,625.37L1241.01,595.901C1241.16,604.735 1247.1,612.456 1255.64,615.063Z" style="fill:rgb(4,199,83);"/>
                <path id="path3484" d="M1425.7,681.589L1412.02,713.723L1401.62,680.383C1408.47,685.969 1418.19,686.426 1425.7,681.589Z" style="fill:rgb(4,199,83);"/>
            </g>
            <g id="g3486" transform="matrix(1,0,0,1,647.899,-29.6954)">
                <path id="path3166" d="M1364.09,325.094L1359.53,327.125C1359.53,327.125 1374.95,361.866 1390.44,397.375C1398.18,415.13 1405.94,433.072 1411.81,446.938C1414.75,453.87 1417.2,459.808 1418.94,464.156C1419.81,466.33 1420.5,468.103 1420.97,469.406C1421.44,470.709 1421.7,471.873 1421.66,471.469L1422.16,475.906L1425.69,473.125L1581.25,350.125L1578.16,346.219L1425.41,467C1424.92,465.691 1424.36,464.202 1423.59,462.281C1421.83,457.876 1419.35,451.949 1416.41,445C1410.53,431.102 1402.75,413.138 1395,395.375C1379.5,359.849 1364.09,325.094 1364.09,325.094Z" style="fill:rgb(68,138,255);"/>
                <path id="path3492" d="M1361.35,354.916L1359.09,320.066L1383.39,345.149C1374.76,343.245 1365.88,347.217 1361.35,354.916Z" style="fill:rgb(68,138,255);"/>
                <path id="path3494" d="M1551.67,354.899L1584.86,344.024L1566.63,373.809C1566.32,364.979 1560.26,357.36 1551.67,354.899Z" style="fill:rgb(68,138,255);"/>
            </g>
            <g id="g3496" transform="matrix(1,0,0,1,647.899,-29.6954)">
                <path id="path3168" d="M1423.5,468.813L1197.75,522.906L1198.91,527.75L1424.66,473.688L1423.5,468.813Z" style="fill:rgb(68,138,255);"/>
                <path id="path3502" d="M1226.58,531.002L1191.89,526.916L1220.96,507.559C1217.53,515.699 1219.83,525.16 1226.58,531.002Z" style="fill:rgb(68,138,255);"/>
            </g>
            <g id="g3408" transform="matrix(1,0,0,1,647.899,-29.6954)">
                <path id="path2177" d="M1285.09,298.813L1281.22,302L1420,470.219L1248.56,542.344L1250.5,546.969L1425.06,473.5L1428.16,472.219L1426.03,469.625L1285.09,298.813Z" style="fill:rgb(252,21,67);"/>
                <path id="path3414" d="M1290.47,328.294L1278.9,295.341L1309.06,312.951C1300.24,313.441 1292.75,319.661 1290.47,328.294Z" style="fill:rgb(252,21,67);"/>
                <path id="path3416" d="M1278.34,545.664L1243.45,547.266L1268.99,523.445C1266.92,532.035 1270.73,540.997 1278.34,545.664Z" style="fill:rgb(252,21,67);"/>
            </g>
            <g id="g3428" transform="matrix(1,0,0,1,647.899,-29.6954)">
                <path id="path2181" d="M1365.97,242.188L1361.16,243.469L1421.72,471.75L1423.09,476.969L1426.19,472.531L1567.75,269.719L1563.66,266.844L1425.19,465.25L1365.97,242.188Z" style="fill:rgb(252,21,67);"/>
                <path id="path3434" d="M1540.82,282.796L1569.46,262.816L1560.59,296.593C1557.75,288.226 1549.75,282.678 1540.82,282.796Z" style="fill:rgb(252,21,67);"/>
                <path id="path3436" d="M1358.57,271.22L1361.82,236.448L1381.87,265.038C1373.65,261.801 1364.25,264.328 1358.57,271.22Z" style="fill:rgb(252,21,67);"/>
            </g>
            <g id="g3418" transform="matrix(1,0,0,1,647.899,-29.6954)">
                <path id="path2179" d="M1421.25,468.438L1421.72,471.594L1446.47,645L1451.44,644.281L1427.12,474.063L1612.41,493.25L1612.91,488.281L1424.44,468.75L1421.25,468.438Z" style="fill:rgb(252,21,67);"/>
                <path id="path3424" d="M1457.23,617.039L1449.93,651.192L1433.37,620.447C1441.15,624.625 1450.79,623.219 1457.23,617.039Z" style="fill:rgb(252,21,67);"/>
                <path id="path3426" d="M1587.89,476.025L1619.26,491.39L1585.41,500.003C1591.35,493.464 1592.33,483.776 1587.89,476.025Z" style="fill:rgb(252,21,67);"/>
            </g>
        </g>
        <g id="g3255">
        </g>
    </g>
</svg>
